<?xml version="1.0" encoding="utf-8"?>
<!-- Generator: Adobe Illustrator 24.0.1, SVG Export Plug-In . SVG Version: 6.00 Build 0)  -->
<svg version="1.1" id="Ebene_1" xmlns="http://www.w3.org/2000/svg" xmlns:xlink="http://www.w3.org/1999/xlink" x="0px" y="0px"
	 width="630px" height="415.7px" viewBox="0 0 630 415.7" style="enable-background:new 0 0 630 415.7;" xml:space="preserve">
<style type="text/css">
	.st0{fill:#FFFFFF;}
	.st1{fill:#FFFFFF;}
</style>
<g transform="translate(-645 -252)">
	<g transform="matrix(1, 0, 0, 1, 645, 252)">
		<path class="st0" d="M178.9,361V186.7l-54.4,19.8v174.1l-55,20V226.4l-54.5,20v-58.1l273.6-99.6v58.1l-54.8,20v174.1L178.9,361z"
			/>
	</g>
	<g transform="matrix(1, 0, 0, 1, 645, 252)">
		<path class="st0" d="M302.2,208.3h-11.5V238h-4.2v-29.6H275v-3.7h27.2V208.3z"/>
	</g>
	<g transform="matrix(1, 0, 0, 1, 645, 252)">
		<path class="st0" d="M330.1,234.2v3.7h-22.7v-33.4h22.3v3.7h-18.1v10.9h15.7v3.5h-15.7v11.5h18.5L330.1,234.2L330.1,234.2z"/>
	</g>
	<g transform="matrix(1, 0, 0, 1, 645, 252)">
		<path class="st0" d="M335.9,221c0-2,0.4-4.1,1.1-6c0.7-2,1.7-3.8,3.1-5.4c1.4-1.6,3.1-2.9,5-3.8c2.1-1,4.4-1.5,6.7-1.4
			c2.7-0.1,5.4,0.7,7.7,2c2.1,1.3,3.7,3.1,4.8,5.3l-3.4,2.2c-0.4-1-1-1.9-1.8-2.6c-0.6-0.7-1.4-1.3-2.3-1.7c-0.8-0.4-1.6-0.7-2.5-1
			c-0.9-0.2-1.8-0.3-2.6-0.2c-1.7,0-3.4,0.4-4.9,1.2c-1.4,0.7-2.6,1.8-3.6,3c-1,1.3-1.7,2.7-2.2,4.2s-0.7,3.1-0.7,4.7
			c0,1.7,0.3,3.4,0.8,5c0.6,1.5,1.4,2.9,2.4,4.2c1,1.2,2.3,2.2,3.7,2.9c1.4,0.7,3,1.1,4.6,1.1c0.9,0,1.9-0.1,2.8-0.4
			c0.9-0.2,1.8-0.6,2.6-1.1c0.9-0.5,1.7-1.1,2.4-1.8c0.7-0.8,1.3-1.7,1.8-2.6l3.5,1.9c-0.5,1.3-1.3,2.4-2.3,3.4
			c-0.9,1-2,1.8-3.2,2.4c-1.2,0.7-2.5,1.2-3.8,1.6c-1.3,0.3-2.6,0.5-4,0.5c-2.2,0-4.4-0.5-6.4-1.6c-1.9-0.9-3.6-2.3-4.9-4
			c-1.4-1.6-2.5-3.5-3.2-5.5C336.3,225.4,335.9,223.2,335.9,221"/>
	</g>
	<g transform="matrix(1, 0, 0, 1, 645, 252)">
		<path class="st0" d="M397.4,204.6V238h-4.2v-15.1h-18.4V238h-4.2v-33.4h4.2V219h18.4v-14.4H397.4z"/>
	</g>
	<g transform="matrix(1, 0, 0, 1, 645, 252)">
		<path class="st0" d="M410.2,212.5V238H406v-33.4h3.2l20.8,26v-26h4.2V238h-3.6L410.2,212.5z"/>
	</g>
	<g transform="matrix(1, 0, 0, 1, 645, 252)">
		<path class="st0" d="M444.7,221.3c0,1.7,0.3,3.3,0.8,4.9c0.5,1.5,1.3,2.9,2.3,4.2c1,1.2,2.2,2.2,3.6,2.9c1.5,0.7,3.1,1.1,4.7,1.1
			c1.7,0,3.3-0.4,4.8-1.2c1.4-0.7,2.6-1.8,3.6-3s1.8-2.7,2.3-4.2c0.5-1.6,0.7-3.2,0.7-4.8c0-1.7-0.3-3.3-0.8-4.9
			c-0.5-1.5-1.3-3-2.4-4.2c-1-1.2-2.2-2.2-3.6-2.9s-3.1-1.1-4.7-1.1c-1.7,0-3.3,0.3-4.8,1.1c-1.4,0.7-2.6,1.8-3.6,3
			s-1.8,2.7-2.3,4.2C445,218,444.8,219.6,444.7,221.3 M456.2,238.2c-2.2,0-4.5-0.5-6.5-1.4c-1.9-0.9-3.6-2.2-4.9-3.8
			c-1.4-1.6-2.4-3.4-3.2-5.4c-0.7-2-1.1-4.1-1.1-6.2c0-2.2,0.4-4.3,1.2-6.4c0.8-2,1.9-3.8,3.4-5.4c1.4-1.5,3.1-2.8,5-3.7
			c1.9-1,4.1-1.4,6.2-1.4c2.2,0,4.4,0.5,6.4,1.4c1.9,0.9,3.6,2.2,4.9,3.8c1.4,1.6,2.4,3.4,3.2,5.4c0.7,2,1.1,4.1,1.1,6.2
			c0,2.2-0.4,4.3-1.2,6.4c-0.8,2-1.9,3.8-3.2,5.4c-1.4,1.5-3.1,2.8-5,3.7C460.5,237.7,458.4,238.2,456.2,238.2"/>
	</g>
	<g transform="matrix(1, 0, 0, 1, 645, 252)">
		<path class="st0" d="M478.3,238v-33.4h4.2v29.6h18.7v3.7L478.3,238L478.3,238z"/>
	</g>
	<g transform="matrix(1, 0, 0, 1, 645, 252)">
		<path class="st0" d="M507.4,221.3c0,1.7,0.3,3.3,0.8,4.9c0.5,1.5,1.3,2.9,2.3,4.2c1,1.2,2.2,2.2,3.6,2.9c1.5,0.7,3.1,1.1,4.7,1.1
			c1.7,0,3.3-0.4,4.8-1.2c1.4-0.7,2.6-1.8,3.6-3s1.8-2.7,2.3-4.2c0.5-1.6,0.7-3.2,0.7-4.8c0-1.7-0.3-3.3-0.8-4.9
			c-0.5-1.5-1.3-3-2.4-4.2c-1-1.2-2.2-2.2-3.6-2.9c-1.4-0.7-3.1-1.1-4.7-1.1c-1.7,0-3.3,0.3-4.8,1.1c-1.4,0.7-2.6,1.8-3.6,3
			s-1.8,2.7-2.3,4.2C507.6,218,507.4,219.6,507.4,221.3 M518.8,238.2c-2.2,0-4.5-0.5-6.5-1.4c-1.9-0.9-3.6-2.2-4.9-3.8
			c-1.4-1.6-2.4-3.4-3.2-5.4c-0.7-2-1.1-4.1-1.1-6.2c0-2.2,0.4-4.3,1.2-6.4c0.8-2,1.9-3.8,3.4-5.4c1.4-1.5,3.1-2.8,5-3.7
			c1.9-1,4.1-1.4,6.2-1.4c2.2,0,4.4,0.5,6.4,1.4c1.9,0.9,3.6,2.2,4.9,3.8c1.4,1.6,2.4,3.4,3.2,5.4c0.7,2,1.1,4.1,1.1,6.2
			c0,2.2-0.4,4.3-1.2,6.4c-0.8,2-1.9,3.8-3.2,5.4c-1.4,1.6-3.1,2.8-5,3.7C523.1,237.7,520.9,238.2,518.8,238.2"/>
	</g>
	<g transform="matrix(1, 0, 0, 1, 645, 252)">
		<path class="st0" d="M564.5,233.5c-3,3.1-6.4,4.8-10.2,4.8c-2.2,0-4.3-0.5-6.2-1.4c-1.9-1-3.5-2.3-4.9-3.8
			c-1.4-1.6-2.5-3.4-3.2-5.4c-0.8-2-1.2-4.2-1.2-6.4s0.4-4.4,1.2-6.5c0.8-2,1.9-3.8,3.2-5.4c1.4-1.5,3.1-2.8,4.9-3.7
			c1.9-0.9,4.1-1.4,6.2-1.3c2.8-0.1,5.5,0.6,7.9,2c2,1.3,3.7,3.1,4.8,5.3l-3.2,2.3c-0.9-1.8-2.2-3.3-4-4.3c-1.7-1-3.7-1.5-5.6-1.4
			c-1.6,0-3.2,0.3-4.6,1.1c-1.4,0.7-2.6,1.7-3.5,2.9c-1,1.3-1.7,2.7-2.3,4.2c-0.5,1.6-0.8,3.2-0.8,4.9s0.3,3.4,0.8,5
			c0.6,1.5,1.4,2.9,2.4,4.2c1,1.2,2.3,2.2,3.7,2.9s3,1.1,4.6,1.1c3.6,0,7-1.8,9.8-5.3v-4.6h-7.2v-3.2H568v16.7h-3.6v-4.6
			L564.5,233.5z"/>
	</g>
	<g transform="matrix(1, 0, 0, 1, 645, 252)">
		<rect x="577.9" y="204.6" class="st0" width="4.2" height="33.4"/>
	</g>
	<g transform="matrix(1, 0, 0, 1, 645, 252)">
		<path class="st0" d="M592.3,204.6V238H615v-3.7h-18.5v-11.5h15.7v-3.6h-15.7v-10.8h18v-3.7L592.3,204.6L592.3,204.6z"/>
	</g>
	<g transform="matrix(1, 0, 0, 1, 645, 252)">
		<path class="st0" d="M302.2,259.7h-11.5v29.6h-4.2v-29.6H275V256h27.2V259.7z"/>
	</g>
	<g transform="matrix(1, 0, 0, 1, 645, 252)">
		<path class="st0" d="M311.6,273.6h10.1c0.8,0,1.7-0.2,2.4-0.6c0.7-0.3,1.4-0.9,1.8-1.6c0.5-0.7,0.9-1.5,1.2-2.3
			c0.3-0.9,0.4-1.7,0.5-2.6c0-0.9-0.1-1.8-0.5-2.6c-0.3-0.8-0.7-1.5-1.3-2.2c-0.6-0.6-1.2-1.1-1.9-1.6c-0.7-0.4-1.5-0.6-2.3-0.6
			h-9.8v14h-0.2L311.6,273.6L311.6,273.6z M307.4,289.3V256h14.3c1.4,0,2.8,0.3,4.1,1c2.5,1.2,4.4,3.3,5.3,5.9
			c0.5,1.2,0.7,2.5,0.7,3.8c0,1.1-0.1,2.3-0.5,3.4c-0.3,1-0.8,2-1.4,2.9s-1.3,1.6-2.2,2.3c-0.9,0.6-1.8,1.1-2.9,1.3l8,12.8H328
			l-7.7-12h-8.9v12L307.4,289.3L307.4,289.3z"/>
	</g>
	<g transform="matrix(1, 0, 0, 1, 645, 252)">
		<path class="st0" d="M356.8,276.2l-6-15.5l-6.2,15.5H356.8z M349,256h3.6l13.7,33.4h-4.6l-4-9.8h-14l-4,9.8h-4.6L349,256z"/>
	</g>
	<g transform="matrix(1, 0, 0, 1, 645, 252)">
		<path class="st0" d="M375.4,263.9v25.4h-4.2V256h3.2l20.8,26v-26h4.2v33.4h-3.6L375.4,263.9z"/>
	</g>
	<g transform="matrix(1, 0, 0, 1, 645, 252)">
		<path class="st0" d="M427.4,262.9c-0.4-0.5-1-1-1.6-1.3c-0.7-0.4-1.4-0.8-2.2-1.1c-0.8-0.3-1.7-0.6-2.5-0.8
			c-0.9-0.2-1.9-0.4-2.9-0.4c-2.6,0-4.6,0.5-5.8,1.4c-1.2,1-1.9,2.4-1.8,4c-0.2,1.6,0.7,3.1,2.2,3.8c0.8,0.5,1.8,0.9,2.8,1.1
			c1.1,0.2,2.4,0.6,4,1s3.1,0.8,4.7,1.3c1.3,0.4,2.5,1,3.6,1.8c0.9,0.7,1.7,1.6,2.3,2.6c0.6,1.2,0.8,2.5,0.7,3.8
			c0,1.5-0.3,2.9-1,4.2c-0.6,1.2-1.4,2.2-2.5,2.9c-1.2,0.8-2.5,1.3-3.8,1.7c-1.6,0.4-3.2,0.6-4.8,0.6c-2.5,0-5-0.4-7.3-1.2
			c-2.3-0.8-4.4-2-6.2-3.5l2-3.6c0.6,0.6,1.2,1.1,1.9,1.6c0.9,0.5,1.8,1,2.8,1.4c1.1,0.4,2.1,0.8,3.2,1.1c1.2,0.2,2.5,0.4,3.7,0.4
			c1.9,0.1,3.8-0.4,5.5-1.3c1.3-0.8,2-2.3,1.9-3.8c0-0.8-0.2-1.7-0.6-2.4c-0.5-0.6-1.1-1.2-1.8-1.7c-1-0.5-2-0.9-3-1.2
			c-1.2-0.4-2.5-0.7-4.1-1.1c-1.5-0.3-3-0.8-4.4-1.3c-1.2-0.4-2.2-1-3.2-1.7c-0.9-0.6-1.5-1.4-1.9-2.4c-0.5-1.1-0.7-2.2-0.6-3.4
			c0-1.4,0.2-2.9,0.8-4.2c0.6-1.2,1.5-2.3,2.5-3.1c1.1-0.9,2.5-1.5,3.8-1.9c1.6-0.4,3.2-0.7,4.8-0.6c2.1,0,4.2,0.3,6.1,1.1
			c1.8,0.6,3.4,1.6,4.8,2.8L427.4,262.9z"/>
	</g>
	<g transform="matrix(1, 0, 0, 1, 645, 252)">
		<path class="st0" d="M437,289.3V256h22v3.7h-17.8v11.2h15v3.6h-15v14.9H437V289.3z"/>
	</g>
	<g transform="matrix(1, 0, 0, 1, 645, 252)">
		<path class="st0" d="M487.6,285.6v3.7h-22.7V256h22.2v3.7h-18v10.8h15.7v3.6h-15.7v11.5H487.6z"/>
	</g>
	<g transform="matrix(1, 0, 0, 1, 645, 252)">
		<path class="st0" d="M498,273.6h10.1c0.8,0,1.7-0.2,2.4-0.6c0.7-0.3,1.4-0.9,1.8-1.6c0.5-0.7,0.9-1.5,1.2-2.3
			c0.3-0.9,0.4-1.7,0.5-2.6c0-0.9-0.1-1.8-0.5-2.6c-0.3-0.8-0.7-1.5-1.3-2.2c-0.6-0.6-1.2-1.1-1.9-1.6c-0.7-0.4-1.5-0.6-2.3-0.6
			h-9.8v14H498V273.6z M493.8,289.3V256h14.3c1.4,0,2.8,0.3,4.1,1c2.5,1.2,4.4,3.3,5.3,5.9c0.5,1.2,0.7,2.5,0.7,3.8
			c0,1.1-0.1,2.3-0.5,3.4c-0.3,1-0.8,2-1.4,2.9c-0.6,0.9-1.3,1.6-2.2,2.3c-0.9,0.6-1.8,1.1-2.9,1.3l8,12.8h-4.8l-7.7-12h-8.9v12
			L493.8,289.3L493.8,289.3z"/>
	</g>
	<g transform="matrix(1, 0, 0, 1, 645, 252)">
		<rect x="286.3" y="307.3" class="st1" width="4.2" height="33.4"/>
	</g>
	<g transform="matrix(1, 0, 0, 1, 645, 252)">
		<path class="st1" d="M303.4,315.2v25.6H299v-33.5h3.4l20.6,26v-25.9h4.3v33.4h-3.6L303.4,315.2z"/>
	</g>
	<g transform="matrix(1, 0, 0, 1, 645, 252)">
		<rect x="335.8" y="307.3" class="st1" width="4.2" height="33.4"/>
	</g>
	<g transform="matrix(1, 0, 0, 1, 645, 252)">
		<path class="st1" d="M374.9,311.2h-11.5v29.6h-4.2v-29.6h-11.5v-3.8h27.2V311.2z"/>
	</g>
	<g transform="matrix(1, 0, 0, 1, 645, 252)">
		<rect x="382.4" y="307.3" class="st1" width="4.2" height="33.4"/>
	</g>
	<g transform="matrix(1, 0, 0, 1, 645, 252)">
		<path class="st1" d="M413.2,327.7l-6-15.5l-6.2,15.5H413.2z M405.4,307.3h3.6l13.7,33.4h-4.6l-4-9.8h-14l-4,9.8h-4.6L405.4,307.3z
			"/>
	</g>
	<g transform="matrix(1, 0, 0, 1, 645, 252)">
		<path class="st1" d="M448.4,311.2h-11.5v29.6h-4.2v-29.6h-11.5v-3.8h27.2V311.2z"/>
	</g>
	<g transform="matrix(1, 0, 0, 1, 645, 252)">
		<rect x="453.7" y="307.3" class="st1" width="4.2" height="33.4"/>
	</g>
	<g transform="matrix(1, 0, 0, 1, 645, 252)">
		<path class="st1" d="M467.4,307.3l11,28.1l11-28.1h4.4l-13.7,33.5h-3.6L463,307.3H467.4z"/>
	</g>
	<g transform="matrix(1, 0, 0, 1, 645, 252)">
		<path class="st1" d="M521.5,337v3.8h-22.7v-33.5h22.3v3.8h-18V322h15.6v3.5h-15.6V337H521.5z"/>
	</g>
	<g transform="matrix(1, 0, 0, 1, 645, 252)">
		<path class="st1" d="M132.7,44.6c3.9,0,7.1-3.2,7.1-7.1s-3.2-7.1-7.1-7.1c-3.9,0-7.1,3.2-7.1,7.1
			C125.6,41.5,128.8,44.6,132.7,44.6"/>
	</g>
	<g transform="matrix(1, 0, 0, 1, 645, 252)">
		<path class="st1" d="M152.8,37.6c3.9,0,7.1-3.2,7.1-7.1s-3.2-7.1-7.1-7.1c-3.9,0-7.1,3.2-7.1,7.1S148.9,37.6,152.8,37.6"/>
	</g>
	<g transform="matrix(1, 0, 0, 1, 645, 252)">
		<path class="st1" d="M172.8,29.2c3.9,0,7.1-3.2,7.1-7.1s-3.2-7.1-7.1-7.1c-3.9,0-7.1,3.2-7.1,7.1S168.9,29.2,172.8,29.2"/>
	</g>
	<g transform="matrix(1, 0, 0, 1, 645, 252)">
		<path class="st1" d="M132.7,66.6c3.9,0,7.1-3.2,7.1-7.1s-3.2-7.1-7.1-7.1c-3.9,0-7.1,3.2-7.1,7.1
			C125.7,63.4,128.8,66.6,132.7,66.6"/>
	</g>
	<g transform="matrix(1, 0, 0, 1, 645, 252)">
		<path class="st1" d="M152.8,59.5c3.9,0,7.1-3.2,7.1-7.1s-3.2-7.1-7.1-7.1c-3.9,0-7.1,3.2-7.1,7.1S148.9,59.5,152.8,59.5"/>
	</g>
	<g transform="matrix(1, 0, 0, 1, 645, 252)">
		<path class="st1" d="M172.8,51c3.9,0,7.1-3.2,7.1-7.1s-3.2-7.1-7.1-7.1c-3.9,0-7.1,3.2-7.1,7.1s3.1,7,7,7.1H172.8"/>
	</g>
	<g transform="matrix(1, 0, 0, 1, 645, 252)">
		<path class="st1" d="M132.7,88.4c3.9,0,7.1-3.2,7.1-7.1s-3.2-7.1-7.1-7.1c-3.9,0-7.1,3.2-7.1,7.1
			C125.7,85.2,128.8,88.4,132.7,88.4"/>
	</g>
	<g transform="matrix(1, 0, 0, 1, 645, 252)">
		<path class="st1" d="M152.8,81.4c3.9,0,7.1-3.2,7.1-7.1s-3.2-7.1-7.1-7.1c-3.9,0-7.1,3.2-7.1,7.1
			C145.7,78.2,148.9,81.3,152.8,81.4"/>
	</g>
	<g transform="matrix(1, 0, 0, 1, 645, 252)">
		<path class="st1" d="M172.8,72.8c3.9,0,7.1-3.2,7.1-7.1s-3.2-7.1-7.1-7.1c-3.9,0-7.1,3.2-7.1,7.1s3.1,7,7,7.1H172.8"/>
	</g>
</g>
</svg>
