<?xml version="1.0" encoding="UTF-8" standalone="no"?>
<!DOCTYPE svg PUBLIC "-//W3C//DTD SVG 1.1//EN" "http://www.w3.org/Graphics/SVG/1.1/DTD/svg11.dtd">
<svg width="100%" height="100%" viewBox="0 0 661 661" version="1.1" xmlns="http://www.w3.org/2000/svg" xmlns:xlink="http://www.w3.org/1999/xlink" xml:space="preserve" xmlns:serif="http://www.serif.com/" style="fill-rule:evenodd;clip-rule:evenodd;stroke-linecap:round;stroke-miterlimit:5.33537;">
    <g transform="matrix(1,0,0,1,-13816,-5431)">
        <g id="CD-Grau" serif:id="CD Grau" transform="matrix(0.707071,0,0,1.41429,-5602.04,2722.9)">
            <rect x="26012.2" y="0" width="3507.87" height="2480.32" style="fill:none;"/>
            <g transform="matrix(0.88898,0,0,0.707071,22892,2338.34)">
                <path d="M3810.49,94.488L7117.57,94.488" style="fill:none;stroke:rgb(30,53,87);stroke-width:14.97px;"/>
            </g>
            <g transform="matrix(1.39776,0,0,0.698808,322.963,1758.75)">
                <path d="M20000.3,358.473C19939.9,281.303 19847.3,236.22 19749.3,236.22C19573.3,236.22 19430.4,379.114 19430.4,555.118C19430.4,731.123 19573.3,874.016 19749.3,874.016C19833.9,874.016 19915,840.418 19974.8,780.613L19895.9,701.764C19857,740.657 19804.3,762.506 19749.3,762.506C19634.8,762.506 19541.9,669.579 19541.9,555.118C19541.9,440.657 19634.8,347.73 19749.3,347.73C19813,347.73 19873.2,377.048 19912.6,427.234L20000.3,358.473Z" style="fill:none;"/>
                <clipPath id="_clip1">
                    <path d="M20000.3,358.473C19939.9,281.303 19847.3,236.22 19749.3,236.22C19573.3,236.22 19430.4,379.114 19430.4,555.118C19430.4,731.123 19573.3,874.016 19749.3,874.016C19833.9,874.016 19915,840.418 19974.8,780.613L19895.9,701.764C19857,740.657 19804.3,762.506 19749.3,762.506C19634.8,762.506 19541.9,669.579 19541.9,555.118C19541.9,440.657 19634.8,347.73 19749.3,347.73C19813,347.73 19873.2,377.048 19912.6,427.234L20000.3,358.473Z"/>
                </clipPath>
                <g clip-path="url(#_clip1)">
                    <g transform="matrix(1.03846,0,0,1.03846,-52.8455,-46.0575)">
                        <path d="M18765,624.407C18785.3,760.007 18893.1,865.71 19029.1,883.423L19043,776.529C18954.7,765.034 18884.8,696.436 18871.6,608.436L18765,624.407Z" style="fill:rgb(56,50,91);"/>
                    </g>
                    <g transform="matrix(1.03846,0,0,1.03846,-52.8455,-46.0575)">
                        <path d="M18993.7,281.119C18857.3,315.479 18761.6,438.192 18761.6,578.91C18761.6,594.167 18762.8,609.403 18765,624.492L18871.7,608.487C18870.2,598.697 18869.5,588.81 18869.5,578.91C18869.5,487.6 18931.5,407.973 19020.1,385.677L18993.7,281.119Z" style="fill:rgb(26,169,174);"/>
                    </g>
                    <g transform="matrix(1.03846,0,0,1.03846,-52.8455,-46.0575)">
                        <path d="M19311.3,390.554C19253.1,315.647 19163.6,271.823 19068.7,271.823C19043.2,271.823 19017.7,275.015 18992.9,281.325L19019.5,385.846C19035.6,381.753 19052.1,379.682 19068.7,379.682C19130.3,379.682 19188.3,408.113 19226.1,456.711L19311.3,390.554Z" style="fill:rgb(228,115,122);"/>
                    </g>
                    <g transform="matrix(1.03846,0,0,1.03846,-52.8455,-46.0575)">
                        <path d="M18935.3,855.512C18976.9,875.576 19022.5,885.996 19068.7,885.996C19150.2,885.996 19228.3,853.643 19285.9,796.053L19209.6,719.764C19172.2,757.121 19121.6,778.108 19068.7,778.108C19038.8,778.108 19009.2,771.349 18982.2,758.334L18935.3,855.512Z" style="fill:rgb(215,29,90);"/>
                    </g>
                    <g transform="matrix(3.44196,0,0,3.44196,-25914.1,-11112.2)">
                        <path d="M13321.6,3347.12C13308.4,3330.18 13288.2,3320.26 13266.7,3320.26C13228.4,3320.26 13197.2,3351.4 13197.2,3389.74C13197.2,3428.09 13228.4,3459.22 13266.7,3459.22C13285.1,3459.22 13302.8,3451.9 13315.8,3438.87L13309.2,3432.2C13297.9,3443.46 13282.6,3449.78 13266.7,3449.78C13233.6,3449.78 13206.7,3422.88 13206.7,3389.74C13206.7,3356.61 13233.6,3329.7 13266.7,3329.7C13285.3,3329.7 13302.8,3338.27 13314.1,3352.91L13321.6,3347.12Z" style="fill:white;fill-opacity:0.5;"/>
                    </g>
                </g>
            </g>
        </g>
    </g>
</svg>
